<?xml version="1.0" standalone="no"?>
<!DOCTYPE svg PUBLIC "-//W3C//DTD SVG 20010904//EN"
 "http://www.w3.org/TR/2001/REC-SVG-20010904/DTD/svg10.dtd">
<svg version="1.0" xmlns="http://www.w3.org/2000/svg"
 width="252.000000pt" height="252.000000pt" viewBox="0 0 252.000000 252.000000"
 preserveAspectRatio="xMidYMid meet">
<metadata>
Created by potrace 1.14, written by Peter Selinger 2001-2017
</metadata>
<g transform="translate(0.000000,252.000000) scale(0.100000,-0.100000)"
fill="#000000" stroke="none">
<path d="M1050 2307 c-3 -3 -36 -8 -75 -11 -81 -8 -107 -12 -155 -21 -19 -3
-46 -8 -60 -10 -14 -2 -54 -11 -90 -20 -36 -9 -74 -19 -85 -21 -39 -7 -176
-52 -259 -85 -77 -30 -85 -35 -89 -63 -3 -17 -3 -125 -1 -241 2 -115 3 -226 2
-245 -5 -99 1 -172 19 -233 11 -37 18 -69 14 -71 -3 -2 -34 -2 -69 -1 -67 1
-76 -4 -86 -56 -5 -27 -74 -287 -81 -307 -3 -8 9 -12 39 -12 l43 0 23 85 c13
47 24 84 26 82 2 -2 5 -37 8 -78 2 -41 4 -77 5 -81 1 -5 25 -8 54 -8 l53 0 43
75 c56 98 73 112 47 39 -7 -22 -16 -56 -20 -76 l-7 -38 74 0 74 0 20 73 c11
39 26 95 33 122 13 50 30 82 30 56 0 -7 -7 -41 -16 -75 -9 -33 -18 -68 -20
-76 -18 -74 -23 -95 -21 -96 4 -5 137 -7 141 -3 3 2 7 17 10 33 7 37 16 46 16
15 0 -47 10 -49 246 -49 l222 0 5 30 c5 22 11 28 22 23 12 -4 15 -13 11 -29
-6 -24 -5 -24 63 -24 38 0 73 5 76 10 4 7 13 6 26 -1 21 -11 281 -15 298 -5 5
3 67 17 138 31 282 55 475 148 519 252 8 18 23 37 35 43 l21 12 -22 23 c-16
17 -24 40 -26 77 -5 76 -12 98 -40 131 -14 17 -22 36 -19 47 12 38 17 125 20
337 2 195 1 224 -14 236 -40 35 -340 128 -501 156 -36 6 -78 13 -95 16 -16 3
-48 8 -70 11 -22 3 -53 7 -70 10 -37 7 -479 16 -485 11z m385 -41 c189 -15
382 -49 570 -101 6 -1 12 -3 15 -3 3 -1 43 -15 90 -33 47 -17 98 -35 113 -41
l28 -10 -5 -232 c-4 -218 -9 -292 -20 -304 -3 -3 -12 1 -20 7 -10 8 -13 25
-10 54 7 59 11 406 6 433 -3 19 -22 30 -96 58 -95 37 -246 81 -306 91 -19 3
-42 8 -50 10 -8 2 -31 7 -50 10 -19 3 -46 7 -60 10 -118 22 -194 27 -395 29
-192 1 -283 -6 -415 -30 -19 -4 -42 -8 -50 -9 -8 -1 -55 -12 -105 -24 -49 -12
-97 -24 -105 -26 -14 -4 -177 -62 -232 -83 -14 -6 -29 -16 -33 -22 -8 -14 -10
-344 -1 -358 3 -5 -1 -15 -8 -21 -8 -7 -16 -8 -19 -4 -2 4 -4 98 -3 208 l1
200 40 19 c22 10 44 20 50 21 5 1 17 5 25 8 132 51 330 101 483 123 15 2 42 6
60 9 17 3 93 8 167 11 74 4 136 7 137 8 3 2 123 -3 198 -8z m25 -100 c42 -4
87 -8 100 -10 14 -3 59 -10 100 -16 41 -7 102 -19 135 -26 33 -8 70 -17 82
-20 12 -2 33 -8 45 -13 13 -5 26 -9 31 -9 18 -1 173 -56 185 -65 10 -8 13 -51
11 -187 -1 -97 -6 -186 -10 -197 -7 -20 -9 -20 -71 11 -35 18 -97 42 -138 55
-41 13 -154 50 -250 82 -96 33 -176 60 -178 59 -1 -1 -27 4 -57 10 -61 13
-274 17 -350 8 -45 -6 -96 -13 -230 -33 -22 -3 -46 -8 -52 -10 -11 -4 -18 14
-14 38 1 4 4 24 7 45 4 20 8 44 9 52 2 8 4 18 4 23 2 17 17 5 19 -15 1 -13 4
-32 6 -43 3 -11 5 -27 5 -34 1 -11 4 -12 12 -4 6 6 11 30 11 54 l-1 42 20 -32
c10 -17 19 -36 19 -42 0 -6 5 -7 10 -4 17 10 11 51 -10 78 -24 30 -26 45 -5
27 8 -7 15 -10 15 -6 0 4 11 -1 25 -10 27 -18 31 -13 15 16 -6 11 -27 22 -47
26 -35 7 -36 8 -13 16 13 5 29 7 37 4 20 -8 25 12 6 22 -24 13 -62 5 -87 -16
-11 -9 -17 -12 -14 -7 11 18 -26 79 -52 86 -14 4 -20 8 -15 8 6 1 48 8 94 16
46 8 127 18 180 21 53 4 97 8 98 9 5 4 240 -3 313 -9z m-688 -58 c23 -19 52
-68 40 -68 -6 0 -14 5 -17 10 -9 15 -69 12 -91 -5 -19 -14 -19 -14 1 -16 11
-1 25 -2 30 -4 6 -1 20 -3 33 -3 13 -1 20 -7 17 -12 -4 -6 -10 -8 -15 -5 -13
8 -58 -23 -71 -47 -10 -18 -8 -19 13 -13 12 4 36 13 52 21 39 19 48 18 37 -3
-16 -30 -42 -110 -44 -133 -1 -23 -31 -44 -51 -37 -6 3 -12 17 -14 33 -2 22 1
25 10 16 7 -7 19 -12 27 -12 12 1 10 6 -8 20 -18 15 -19 20 -7 20 9 0 16 5 16
11 0 8 -11 9 -32 5 -31 -6 -31 -6 -13 14 16 17 16 20 2 20 -9 0 -18 -8 -21
-18 -5 -14 -14 -18 -39 -15 -25 2 -28 1 -12 -6 18 -8 19 -9 3 -16 -21 -8 -25
-30 -5 -22 10 4 13 -2 9 -19 -3 -19 -1 -23 11 -18 10 3 17 -1 20 -13 4 -14 5
-12 7 7 1 14 2 29 1 33 -1 5 2 6 7 3 5 -3 9 -18 8 -33 -1 -19 -7 -29 -21 -31
-11 -2 -56 -15 -100 -29 -44 -13 -87 -26 -95 -28 -8 -2 -31 -9 -50 -14 -19 -6
-36 -11 -37 -11 0 0 -2 69 -2 153 -1 115 1 156 11 164 15 12 251 91 294 99 16
3 31 7 33 10 9 9 48 4 63 -8z m-402 -897 c0 -3 -11 -23 -23 -44 l-24 -39 -1
35 c-1 19 -2 39 -3 43 -1 5 -1 12 0 15 1 8 51 -1 51 -10z m373 -93 c9 -10 7
-18 -10 -35 l-23 -22 4 22 c3 12 5 28 5 35 1 6 4 12 7 12 3 0 11 -6 17 -12z
m145 -105 c-2 -10 -13 -19 -26 -21 -24 -4 -25 -2 -16 22 9 23 46 21 42 -1z"/>
<path d="M285 879 c-38 -3 -68 -7 -65 -8 5 -3 110 -8 216 -10 39 -1 42 -3 97
-83 56 -84 113 -153 177 -218 48 -47 140 -130 145 -130 3 0 25 -16 51 -35 69
-53 179 -115 271 -152 l81 -33 49 16 c248 84 552 336 703 582 31 50 33 52 78
53 152 3 202 6 208 12 4 4 -26 7 -67 8 -41 0 -131 2 -201 4 -123 3 -127 2
-134 -18 -6 -21 -31 -57 -79 -117 -27 -34 -153 -160 -190 -190 -88 -72 -229
-156 -322 -193 -40 -16 -45 -16 -90 3 -160 68 -306 168 -432 299 -90 93 -150
176 -144 200 5 19 -1 19 -139 18 -78 -1 -174 -5 -213 -8z m297 -77 c71 -108
182 -226 315 -333 76 -62 272 -169 336 -185 34 -8 110 22 227 89 170 97 326
239 446 407 32 44 63 80 71 80 20 0 16 -10 -32 -80 -102 -149 -234 -279 -380
-375 -166 -109 -286 -161 -332 -145 -195 71 -415 227 -563 399 -50 59 -139
182 -140 194 -1 20 19 1 52 -51z"/>
<path d="M140 876 c0 -2 9 -6 20 -9 11 -3 20 -1 20 4 0 5 -9 9 -20 9 -11 0
-20 -2 -20 -4z"/>
<path d="M195 870 c3 -5 8 -10 11 -10 2 0 4 5 4 10 0 6 -5 10 -11 10 -5 0 -7
-4 -4 -10z"/>
<path d="M2310 872 c0 -4 9 -8 20 -8 11 0 20 4 20 8 0 4 -9 8 -20 8 -11 0 -20
-4 -20 -8z"/>
<path d="M771 813 c-6 -21 -9 -42 -8 -48 2 -12 67 -15 67 -3 0 4 -7 8 -15 8
-8 0 -15 6 -15 14 0 9 7 13 20 11 11 -2 20 0 20 6 0 5 -7 9 -15 9 -8 0 -15 6
-15 14 0 9 7 12 20 9 11 -3 20 0 20 6 0 6 -16 11 -35 11 -31 0 -35 -3 -44 -37z"/>
<path d="M1136 841 c-4 -5 0 -12 6 -14 7 -3 3 -6 -10 -6 -12 -1 -31 5 -42 12
-16 9 -22 9 -28 0 -4 -6 -27 -10 -54 -9 -43 3 -48 1 -57 -24 -12 -36 -3 -47
36 -45 36 2 35 0 50 35 l12 25 0 -31 c1 -31 2 -32 47 -29 26 1 50 8 55 16 7
11 9 11 9 -3 0 -12 8 -16 30 -16 35 1 53 18 20 18 -16 0 -20 4 -16 16 3 9 6
18 6 20 0 2 9 4 21 4 11 0 17 5 14 10 -9 15 -55 4 -71 -17 -12 -16 -12 -14 -4
15 7 25 6 32 -5 32 -8 0 -16 -4 -19 -9z m-133 -51 c-3 -11 -9 -20 -14 -20 -10
0 -12 24 -2 33 13 13 21 7 16 -13z m120 -4 c-4 -17 -10 -22 -24 -19 -21 6 -21
6 -13 27 3 9 14 16 24 16 13 0 16 -6 13 -24z"/>
<path d="M1313 805 c-10 -44 -4 -63 17 -50 6 3 10 13 10 21 0 22 17 17 23 -7
6 -24 33 -20 29 4 -1 8 2 18 8 22 5 3 10 17 10 31 0 22 -4 24 -43 24 -43 0
-44 0 -54 -45z m62 15 c-3 -5 -10 -10 -16 -10 -5 0 -9 5 -9 10 0 6 7 10 16 10
8 0 12 -4 9 -10z"/>
<path d="M1630 832 c0 -5 -22 -8 -50 -7 -46 2 -50 0 -60 -28 -13 -40 -13 -47
4 -47 8 0 19 14 25 30 5 17 15 30 20 30 7 0 7 -8 1 -25 -11 -29 3 -43 25 -25
10 8 19 9 28 3 15 -12 47 -13 47 -1 0 4 -4 8 -10 8 -18 0 -10 27 13 44 12 9
17 14 10 11 -6 -3 -14 -1 -18 5 -7 12 -35 13 -35 2z m-10 -37 c0 -8 -4 -15 -8
-15 -5 0 -9 7 -9 15 0 8 4 15 9 15 4 0 8 -7 8 -15z"/>
<path d="M866 806 c3 -13 1 -27 -5 -30 -6 -4 -11 -12 -11 -18 0 -7 4 -7 13 1
8 6 17 8 21 4 10 -10 46 -14 46 -5 0 4 -4 13 -9 21 -7 10 -4 19 7 27 16 12 15
13 -3 12 -11 0 -30 3 -43 5 -19 5 -21 3 -16 -17z"/>
<path d="M1435 816 c-7 -6 -15 -22 -17 -36 -3 -22 1 -24 35 -25 40 -1 51 11
15 18 -17 3 -14 5 10 6 26 1 32 5 32 24 0 19 -5 23 -31 23 -16 0 -36 -4 -44
-10z m45 -10 c0 -3 -4 -8 -10 -11 -5 -3 -10 -1 -10 4 0 6 5 11 10 11 6 0 10
-2 10 -4z"/>
<path d="M1705 817 c-8 -4 -13 -21 -13 -37 1 -30 5 -31 70 -21 4 0 7 16 6 35
-1 29 -4 34 -25 32 -13 0 -30 -4 -38 -9z"/>
<path d="M1017 627 c-4 -15 -11 -26 -15 -26 -28 5 -34 -2 -14 -17 19 -13 20
-18 10 -37 -10 -20 -10 -21 5 -9 9 8 25 11 36 7 15 -5 18 -2 14 13 -2 11 0 23
6 26 16 10 13 29 -3 23 -10 -4 -18 4 -24 21 l-9 27 -6 -28z"/>
<path d="M1467 620 c-4 -14 -10 -18 -22 -14 -16 6 -16 5 -4 -17 7 -13 12 -30
10 -37 -1 -10 4 -12 20 -7 14 5 25 2 31 -6 6 -10 8 -6 6 12 -1 14 4 34 12 45
8 10 10 15 3 11 -7 -4 -20 2 -31 13 l-19 21 -6 -21z"/>
<path d="M1253 550 c-9 -24 -15 -28 -37 -24 -31 5 -34 -9 -6 -29 17 -12 19
-19 10 -41 -14 -39 -13 -40 18 -17 28 19 28 19 59 0 l32 -20 -12 30 c-10 27
-9 33 11 51 27 25 27 29 5 25 -24 -3 -53 13 -53 30 0 27 -16 24 -27 -5z"/>
</g>
</svg>
